<?xml version="1.0" encoding="iso-8859-1"?>
<!-- Generator: Adobe Illustrator 19.0.0, SVG Export Plug-In . SVG Version: 6.00 Build 0)  -->
<svg version="1.1" id="Layer_1" xmlns="http://www.w3.org/2000/svg" xmlns:xlink="http://www.w3.org/1999/xlink" x="0px" y="0px"
	 viewBox="0 0 512 512" style="enable-background:new 0 0 512 512;" xml:space="preserve">
<g>
	<g>
		<path d="M40.851,446.638c-4.512,0-8.17,3.658-8.17,8.17v10.894c0,4.512,3.658,8.17,8.17,8.17s8.17-3.658,8.17-8.17v-10.894
			C49.021,450.296,45.363,446.638,40.851,446.638z"/>
	</g>
</g>
<g>
	<g>
		<path d="M8.17,413.957c-4.512,0-8.17,3.658-8.17,8.17v10.894c0,4.512,3.658,8.17,8.17,8.17s8.17-3.658,8.17-8.17v-10.894
			C16.34,417.616,12.682,413.957,8.17,413.957z"/>
	</g>
</g>
<g>
	<g>
		<path d="M106.213,413.957c-4.512,0-8.17,3.658-8.17,8.17v10.894c0,4.512,3.658,8.17,8.17,8.17s8.17-3.658,8.17-8.17v-10.894
			C114.383,417.616,110.725,413.957,106.213,413.957z"/>
	</g>
</g>
<g>
	<g>
		<path d="M405.787,99.677c-4.513,0-8.17,3.658-8.17,8.17v297.94c0,4.512,3.657,8.17,8.17,8.17s8.17-3.658,8.17-8.17v-297.94
			C413.957,103.335,410.3,99.677,405.787,99.677z"/>
	</g>
</g>
<g>
	<g>
		<path d="M438.468,99.677c-4.513,0-8.17,3.658-8.17,8.17v297.94c0,4.512,3.657,8.17,8.17,8.17s8.17-3.658,8.17-8.17v-297.94
			C446.638,103.335,442.981,99.677,438.468,99.677z"/>
	</g>
</g>
<g>
	<g>
		<path d="M495.66,464.384v-18.221c3.171-1.123,5.447-4.14,5.447-7.695c0-4.512-3.657-8.17-8.17-8.17h-13.617v-70.808h24.511
			c4.513,0,8.17-3.658,8.17-8.17s-3.657-8.17-8.17-8.17h-24.511V83.336h2.723c4.513,0,8.17-3.658,8.17-8.17s-3.657-8.17-8.17-8.17
			h-2.723V8.17c0-4.512-3.657-8.17-8.17-8.17h-98.043c-4.513,0-8.17,3.658-8.17,8.17v58.826h-2.723c-4.513,0-8.17,3.658-8.17,8.17
			s3.657,8.17,8.17,8.17h2.723v259.813h-16.554c-1.601-31.804-12.546-61.844-31.911-87.323c-2.731-3.592-7.854-4.292-11.449-1.561
			c-3.593,2.73-4.291,7.855-1.561,11.448c17.184,22.611,26.95,49.236,28.536,77.436h-48.763V177.021c0-4.512-3.657-8.17-8.17-8.17
			h-29.297l-30.286-30.286c-0.188-0.188-0.387-0.368-0.594-0.537c-0.053-0.044-0.111-0.081-0.164-0.123
			c-0.156-0.122-0.313-0.243-0.477-0.353c-0.051-0.035-0.106-0.063-0.158-0.096c-0.173-0.11-0.347-0.219-0.529-0.317
			c-0.039-0.022-0.082-0.038-0.122-0.059c-0.197-0.101-0.396-0.199-0.601-0.284c-0.029-0.012-0.06-0.021-0.088-0.033
			c-0.217-0.087-0.437-0.169-0.662-0.237c-0.033-0.01-0.066-0.016-0.099-0.025c-0.221-0.064-0.446-0.123-0.674-0.169
			c-0.069-0.014-0.139-0.02-0.208-0.032c-0.194-0.034-0.387-0.068-0.585-0.087c-0.27-0.027-0.542-0.041-0.816-0.041H177.02
			c-4.512,0-8.17,3.658-8.17,8.17v50.515c-36.246,5.005-69.593,22.45-94.561,49.628c-24.983,27.194-39.509,61.964-41.393,98.665
			H8.17c-4.512,0-8.17,3.658-8.17,8.17s3.658,8.17,8.17,8.17h160.681v70.808h-13.617c-4.512,0-8.17,3.658-8.17,8.17
			c0,3.556,2.276,6.572,5.447,7.695v18.221c-9.509,3.373-16.34,12.454-16.34,23.105c0,13.516,10.995,24.511,24.511,24.511h130.723
			c13.515,0,24.511-10.995,24.511-24.511c0-10.651-6.831-19.733-16.34-23.105v-18.221c3.171-1.123,5.447-4.14,5.447-7.695
			c0-4.512-3.657-8.17-8.17-8.17h-13.617v-70.808h81.702v70.808h-13.617c-4.513,0-8.17,3.658-8.17,8.17
			c0,3.556,2.276,6.572,5.447,7.695v18.221c-9.509,3.373-16.34,12.454-16.34,23.105c0,13.516,10.996,24.511,24.511,24.511h130.723
			C501.004,512,512,501.005,512,487.489C512,476.839,505.169,467.757,495.66,464.384z M185.192,152.511h16.34v253.277
			c0,4.512,3.658,8.17,8.17,8.17s8.17-3.658,8.17-8.17V164.064l16.34,16.34v61.978c0,4.512,3.658,8.17,8.17,8.17
			s8.17-3.658,8.17-8.17v-57.191h16.34v245.106h-81.702V152.511z M49.258,343.149c3.746-67.079,53.349-121.675,119.593-131.781
			v131.781H49.258z M168.851,446.638h114.383v16.34H168.851V446.638z M291.404,479.319c4.506,0,8.17,3.665,8.17,8.17
			c0,4.506-3.665,8.17-8.17,8.17H160.681c-4.506,0-8.17-3.665-8.17-8.17c0-4.506,3.665-8.17,8.17-8.17H291.404z M381.277,16.34
			h81.702v50.655h-81.702V16.34z M381.277,83.336h81.702v346.962h-81.702V83.336z M364.936,446.638h114.383v16.34H364.936V446.638z
			 M487.489,495.66H356.766c-4.506,0-8.17-3.665-8.17-8.17c0-4.506,3.665-8.17,8.17-8.17h130.723c4.506,0,8.17,3.665,8.17,8.17
			C495.66,491.995,491.995,495.66,487.489,495.66z"/>
	</g>
</g>
<g>
	<g>
		<path d="M242.383,266.894c-4.512,0-8.17,3.658-8.17,8.17v130.723c0,4.512,3.658,8.17,8.17,8.17s8.17-3.658,8.17-8.17V275.064
			C250.553,270.552,246.895,266.894,242.383,266.894z"/>
	</g>
</g>
<g>
	<g>
		<path d="M98.043,65.362H35.404C15.883,65.362,0,81.245,0,100.766s15.883,35.404,35.404,35.404h62.638
			c19.521,0,35.404-15.883,35.404-35.404S117.564,65.362,98.043,65.362z M98.043,119.83H35.404
			c-10.511,0-19.064-8.553-19.064-19.064c0-10.511,8.553-19.064,19.064-19.064h62.638c10.511,0,19.064,8.553,19.064,19.064
			C117.106,111.277,108.554,119.83,98.043,119.83z"/>
	</g>
</g>
<g>
	<g>
		<path d="M283.234,0H166.128c-19.521,0-35.404,15.883-35.404,35.404c0,19.521,15.883,35.404,35.404,35.404h117.106
			c19.522,0,35.404-15.883,35.404-35.404C318.638,15.883,302.756,0,283.234,0z M283.234,54.468H166.128
			c-10.511,0-19.064-8.553-19.064-19.064c0-10.511,8.553-19.064,19.064-19.064h117.106c10.511,0,19.064,8.553,19.064,19.064
			C302.298,45.916,293.745,54.468,283.234,54.468z"/>
	</g>
</g>
<g>
</g>
<g>
</g>
<g>
</g>
<g>
</g>
<g>
</g>
<g>
</g>
<g>
</g>
<g>
</g>
<g>
</g>
<g>
</g>
<g>
</g>
<g>
</g>
<g>
</g>
<g>
</g>
<g>
</g>
</svg>
